<svg version="1" xmlns="http://www.w3.org/2000/svg" width="1038.667" height="1038.667" viewBox="0 0 779.000000 779.000000"><path d="M347 1c-54 3.1-92.9 20.5-112.6 50.2-10.2 15.3-11.8 24.8-11.9 69.8 0 39.1-.4 36.7 11.2 63.7 7.6 17.6 7.7 17.9 8.4 28.8 1 17 4.1 21.7 16.8 26.1 8 2.8 39.4 7.4 45.3 6.6 5-.6 11.4 3.2 19.3 11.3l6 6.2 11 2.6c6.1 1.5 20.5 4.6 32 6.8 11.6 2.3 22.2 4.6 23.6 5.3 1.4.6 8.1 6.8 14.7 13.8 13.6 14.2 17.8 21.1 20.8 34.6 2 8.9 1.5 24.3-1 31.2-5.2 14.1-17.1 23.3-33.2 25.4-10.2 1.4-23-4.4-31.4-14.3-6.1-7.1-9.9-15.6-19.1-42.7-4.6-13.7-6.1-16.7-9.7-19.3-6.9-4.9-14.9-3.6-33.6 5.4-9.8 4.8-13.4 5.9-30.6 9.6-24 5.1-32.6 7.7-45.6 13.9-17.1 8.2-30.5 19.9-34.9 30.3-1.8 4.3-1.9 13.5-.4 20.8 1.4 6.4 14.5 32.2 20.5 40.4 2.5 3.3 7.3 9.5 10.7 13.7 3.5 4.3 8.7 12.2 11.7 17.5 10.7 19.7 24.2 37.6 44.6 59.3 11.7 12.6 20.9 23.9 23.7 29.5 2.3 4.6 13.1 30.1 15.6 37 2.6 7 4.4 9.3 8.8 11.1 5.9 2.5 9.8 1.8 13-2.2 7.1-8.9 9.2-10.6 12.1-9.9 8.5 2.1 12.9 13.7 15.6 41 .8 8.2 1.8 19.9 2.1 26 .3 6 1.5 18.9 2.7 28.5 2.3 19.6 2.1 37.7-.7 53-3.1 17.6-1.1 38.9 4.2 43.7 2.7 2.6 9.6 3.1 12.4 1 2.8-2.1 6.1-9.8 7.5-17.6 1.6-8.9 1.8-31.5.4-48.8-1.4-17.9.4-24.7 11.4-42.7 5.9-9.7 9.1-18.3 11.1-29.6 4-23 6.6-29.9 14.2-38.1 11.1-11.9 23.8-11.9 29.9.1 1.3 2.5 2.4 5.9 2.4 7.5 0 8.3 6.2 24.3 10.4 27 6.1 4 11.8-1 13.1-11.3.3-3.2 2.4-13.4 4.5-22.8 4.2-18.9 7.5-27 16.3-40 2.9-4.3 8-12.4 11.2-17.9 3.2-5.5 8.9-14.4 12.7-19.7 4.4-6.1 9.4-15 13.5-24 16.2-35.5 20.3-44.9 23.1-53.8 1.6-5.2 5.9-18.3 9.3-29l6.4-19.5v-13c0-15.8-1.3-20.3-9.2-32.5-7.7-11.8-17.3-30.2-23.3-45-9.3-22.5-21.6-42.9-35.8-59-11.8-13.5-53.6-50.8-63.8-57-2.8-1.7-13.4-6.5-23.5-10.6-26-10.5-28.6-11.9-35.6-19.1-11.7-11.8-14-20.8-7.2-27.9 5.2-5.4 10.5-6.9 24.4-6.9 11.2.1 12.6.3 20.3 3.4 10.5 4.2 20.9 11.1 29.9 19.9 7.3 7.1 17.5 20.1 22 28.1 6.9 12.2 7.7 12.9 20.7 17.6 4.5 1.6 5.1 2.3 7.6 7.9 1.5 3.3 3.5 8.5 4.5 11.4 3.6 11.2 14.6 11.6 20.2.9 2.1-4.1 4.3-16.7 4.3-24.6 0-8.5 2.7-24.2 5-29.5 1-2.3 5.2-8.8 9.4-14.6 4.2-5.8 9.3-13.9 11.4-17.9 3.4-6.9 3.7-8.2 3.7-16.1 0-8.3-.2-9.1-4.7-18.2-5.4-10.8-11.8-17.6-19.1-20.1-2.3-.8-6.4-2.3-9.2-3.3-3.8-1.3-7.6-4.3-16.2-12.5-11.8-11.3-13.2-12.2-42.3-28.2C448.6 12.4 433.2 6 414.8 2.5 404.7.6 368.3-.2 347 1z"/></svg>